# xmcd
#
# Track frame offsets:
# 150
# 20427
# 33408
# 44910
# 77697
# 96528
# 112998
# 123771
# 137023
#
# Disc length: 2007 seconds
#
# Revision: 0
# Processed by: cddbd v1.5.1PL0 Copyright (c) Steve Scherf et al.
# Submitted via: Audion 3.0.2 (http://www.panic.com/audion/)
#
DISCID=7407d509
DTITLE=GrinderSwitch - Red Wing
DYEAR=1900
DGENRE=
TTITLE0=Red Wing
TTITLE1=You and Me
TTITLE2=That Special Woman
TTITLE3=Taste of Love
TTITLE4=This Road
TTITLE5=Wings of an Angel
TTITLE6=Watermelon Time in Georgia
TTITLE7=I Bought All the Lies
TTITLE8=Faster and Faster
EXTD=
EXTT0=
EXTT1=
EXTT2=
EXTT3=
EXTT4=
EXTT5=
EXTT6=
EXTT7=
EXTT8=
PLAYORDER=
